# xmcd
#
# Track frame offsets: 
#        150
#        21885
#        51092
#        68460
#        87452
#        109102
#        126247
#        145340
#        162532
#        180692
#
# Disc length: 2720 seconds
#
# Revision: 1
# Processed by: cddbd v1.5.2PL0 Copyright (c) Steve Scherf et al.
# Submitted via: ExactAudioCopy v1.1
#
DISCID=8a0a9e0a
DTITLE=Michael Monroe - As Far As I Can See
DYEAR=2000
DGENRE=Folk
TTITLE0=From My Backyard
TTITLE1=Time Out of Mind [Whippoorwill]
TTITLE2=Where Do the Children Play?
TTITLE3=Against the Wall
TTITLE4=You and I
TTITLE5=Again and Again
TTITLE6=Unspoken Words
TTITLE7=Nobody Home
TTITLE8=Dawn Moon
TTITLE9=Spring
EXTD=YEAR: 2000
EXTT0=
EXTT1=
EXTT2=
EXTT3=
EXTT4=
EXTT5=
EXTT6=
EXTT7=
EXTT8=
EXTT9=
PLAYORDER=
